# xmcd CD database file
#
# Track frame offsets:
#	150
#	23985
#	44125
#
# Disc length: 991 seconds
#
# Revision: 0
# Processed by: cddbd v1.5PL3 Copyright (c) Steve Scherf et al.
# Submitted via: CDex 1.51
#
DISCID=2403dd03
DTITLE=Sade - Lovers Live (Sampler)
DYEAR=1900
DGENRE=Jazz
TTITLE0=Somebody Already Broke My Heart
TTITLE1=Paradise
TTITLE2=Jezebel
EXTD=
EXTT0=
EXTT1=
EXTT2=
PLAYORDER=
